<svg xmlns="http://www.w3.org/2000/svg" width="512" height="512" fill="none" viewBox="0 0 512 512" id="stay-strong">
  <path fill="#fff" d="M437.43 362.84C428.34 372.72 414.36 376.21 401.11 378.48C379.48 382.17 357.34 383.82 335.53 381.22C329.04 380.45 322.58 379.27 316.23 377.67C308.17 380.43 300.06 383.05 295.7 383.96C257.98 391.87 218.88 392.91 180.65 388.02C180.65 388.02 178.15 387.33 174.46 385.93C171.36 391.04 168.6 396.42 166.08 401.76C157.5 420.02 150.8 439.97 136.58 454.29C119.21 471.72 78.2401 451.57 87.3101 404.52C79.7801 400.14 72.0502 389.83 66.5102 369.44C55.1302 327.64 90.2301 300.55 103.52 288.03C130.95 262.24 173.69 253.74 208.22 268.69C208.22 268.69 208.69 269.01 209.5 269.6C212.73 268.5 215.99 267.53 219.3 266.72C239.92 261.63 262.24 262.15 281.82 270.35C291.9 274.57 301.18 280.92 308.66 288.86C310.24 286.73 311.83 284.66 312.98 283.26C317.87 277.36 326.39 275.08 334.02 275.96C334.02 275.96 336.62 275.94 340.37 276.61C338.14 263.97 338.89 250.82 342.93 238.65C343.5 236.97 344.11 235.36 344.74 233.88C342.77 214.22 342.81 195.08 343.3 186.8C343.71 180 345.59 169.65 339.3 160.24C335.65 154.78 328.77 150.72 322.26 150.05C315.73 149.36 308.97 149.14 303.04 146.34C290.76 140.52 285.06 125.03 272.46 119.98C269.23 118.68 265.54 118.03 263.19 115.48C260.37 112.4 260.65 107.22 263.27 103.98C265.89 100.71 270.31 99.27 274.49 99.56C274.49 99.56 275.46 99.54 276.78 99.54C276.7 98.89 276.68 98.22 276.74 97.57C276.92 95.54 277.65 93.63 278.67 91.83L276.03 88.69C270.23 79.78 278.24 69.09 291.17 59.29C304.1 49.49 321.91 47.26 334.84 62.84C347.74 78.44 370.47 79.78 375.36 101.17C380.27 122.54 394.53 159.51 417.69 195.6C434.29 221.43 438.77 258.68 435.89 289.53C436.6 290.52 437.09 291.42 437.37 292.17C441.67 303.86 446.36 315.61 447.47 328C448.59 340.37 445.88 353.68 437.43 362.84Z"></path>
  <path fill="#000" d="M104.59 289.089C114.91 279.039 127.65 271.659 141.37 267.329C155.08 262.999 169.74 261.619 184 263.539C192.06 264.619 200.01 266.769 207.48 269.989C209.23 270.749 210.76 268.159 208.99 267.399C195.27 261.489 180.26 258.999 165.35 259.879C150.46 260.759 135.77 264.889 122.68 272.059C115.31 276.089 108.49 281.119 102.47 286.979C101.08 288.319 103.2 290.439 104.59 289.089Z"></path>
  <path fill="#000" d="M163.6 296.541C183.91 280.951 207.63 268.671 233.34 265.661 257.87 262.791 283.6 268.411 302.46 284.961 311.79 293.151 319.13 303.601 322.96 315.451 323.55 317.281 326.45 316.501 325.85 314.651 318.67 292.451 300.15 275.321 278.48 267.441 253.05 258.191 224.63 261.261 200.03 271.541 186.42 277.231 173.77 284.971 162.08 293.941 161.43 294.441 161.11 295.231 161.54 295.991 161.91 296.641 162.96 297.031 163.6 296.541zM341.49 238.23C335.85 256.25 336.74 276.18 343.75 293.7 345.73 298.65 348.17 303.39 351.08 307.86 352.13 309.47 354.73 307.97 353.67 306.35 343.7 291.04 339.36 272.42 341.22 254.27 341.75 249.1 342.83 243.99 344.38 239.03 344.97 237.18 342.07 236.39 341.49 238.23zM314.04 284.319C319.31 279.159 326.71 276.669 334.03 277.459 334.84 277.549 335.52 276.709 335.53 275.959 335.54 275.079 334.83 274.549 334.03 274.459 325.96 273.589 317.71 276.529 311.92 282.199 310.54 283.549 312.66 285.669 314.04 284.319zM174.36 301.64C160.62 310.59 152.34 325.16 145.95 339.84 139.49 354.67 134.55 370.28 125.56 383.88 120.68 391.25 114.57 397.81 106.93 402.36 105.27 403.35 106.78 405.94 108.44 404.95 122.35 396.67 130.98 382.46 137.47 368.06 144.16 353.23 148.96 337.5 157.63 323.62 162.38 316.03 168.32 309.15 175.87 304.23 177.48 303.18 175.98 300.58 174.36 301.64zM163.21 348.85C175.59 338.14 190.84 330.93 206.93 327.97 211.51 327.13 216.16 326.66 220.81 326.54 222.74 326.49 222.74 323.49 220.81 323.54 203.87 323.99 187.12 329.07 172.76 338.08 168.65 340.66 164.75 343.56 161.08 346.74 159.63 347.99 161.76 350.11 163.21 348.85zM137.63 455.34C148.88 443.27 155.79 428.15 162.48 413.27 168.8 399.21 175.28 384.88 185.5 373.14 191.02 366.8 197.56 361.44 205.21 357.87 206.96 357.05 205.44 354.47 203.7 355.28 189.84 361.75 179.78 373.89 172.19 386.84 164.03 400.75 158.57 416 151.13 430.28 146.84 438.51 141.87 446.42 135.52 453.23 134.2 454.63 136.31 456.75 137.63 455.34z"></path>
  <path fill="#000" d="M180.65 389.511C210.57 393.331 240.95 393.341 270.87 389.531 279.32 388.451 287.73 387.081 296.09 385.411 297.98 385.031 297.18 382.141 295.29 382.521 265.85 388.411 235.67 390.531 205.69 388.831 197.32 388.361 188.96 387.581 180.65 386.521 178.74 386.271 178.76 389.271 180.65 389.511zM273.45 360.359C286.83 369.629 302.12 375.939 317.94 379.639 334.92 383.609 352.48 384.609 369.85 383.619 378.92 383.109 387.96 382.059 396.94 380.659 404.51 379.479 412.12 378.139 419.38 375.619 426.2 373.249 432.74 369.799 437.82 364.589 442.89 359.399 446.17 352.699 447.82 345.669 451.62 329.409 446.85 313.049 441.15 297.849 440.38 295.809 439.6 293.769 438.82 291.729 438.13 289.949 435.23 290.719 435.93 292.529 441.7 307.509 447.76 323.269 445.86 339.619 445.05 346.599 442.7 353.499 438.51 359.189 434.35 364.839 428.31 368.829 421.89 371.469 415.25 374.199 408.16 375.729 401.11 376.939 392.45 378.429 383.73 379.579 374.97 380.269 357.93 381.599 340.66 381.169 323.87 377.849 308.39 374.779 293.33 369.329 279.89 360.989 278.22 359.959 276.59 358.879 274.97 357.759 273.37 356.669 271.87 359.269 273.45 360.359zM328.58 100.38C325.19 106.24 320.12 110.95 314.05 113.93 313.32 114.29 313.12 115.32 313.51 115.98 313.94 116.72 314.83 116.88 315.56 116.52 322.07 113.32 327.54 108.17 331.17 101.9 332.14 100.22 329.55 98.7103 328.58 100.38z"></path>
  <path fill="#000" d="M318.13 115.67C317.26 130.4 330.4 139.99 338.49 150.46C340.88 153.55 342.93 156.91 344.16 160.63C344.76 162.45 347.66 161.67 347.05 159.83C344.29 151.47 338.02 145.19 332.25 138.81C326.48 132.43 320.6 124.74 321.13 115.67C321.24 113.74 318.24 113.75 318.13 115.67Z"></path>
  <path fill="#000" d="M277.33 87.8997C274.26 83.0497 275.96 77.7597 278.97 73.3197C280.91 70.4597 283.34 67.9297 285.89 65.5897C288.6 63.0997 291.47 60.7097 294.57 58.7097C304.25 52.4497 316.51 50.7297 326.53 57.2597C331.66 60.5997 334.98 65.8397 339.7 69.6697C343.81 73.0097 348.37 75.7097 352.91 78.3997C357.23 80.9597 361.61 83.5497 365.34 86.9597C369.17 90.4597 372.04 94.7797 373.49 99.7797C374.87 104.56 375.92 109.41 377.4 114.17C379.16 119.85 381.14 125.46 383.28 131.01C388.46 144.5 394.52 157.65 401.29 170.41C405.1 177.59 409.14 184.64 413.42 191.55C416.85 197.09 420.3 202.52 423 208.47C428.16 219.8 431.32 232.02 433.19 244.3C435.08 256.68 435.6 269.3 434.96 281.8C434.38 292.95 432.88 304.12 429.94 314.9C429.32 317.18 428.63 319.44 427.85 321.67C427.22 323.5 430.12 324.28 430.74 322.47C434.33 312.07 436.27 301.13 437.33 290.2C438.56 277.51 438.51 264.68 437.18 252C435.82 239.13 433.18 226.31 428.59 214.18C426.4 208.38 423.78 202.73 420.61 197.39C416.48 190.43 412.05 183.67 408.09 176.61C400.56 163.2 393.83 149.33 388.08 135.06C383.75 124.31 379.85 113.3 377.14 102.01C375.84 96.5997 373.81 91.7497 370.12 87.5197C366.7 83.5997 362.35 80.6097 357.96 77.9097C353.37 75.0897 348.62 72.5097 344.24 69.3597C341.99 67.7497 339.86 65.9697 337.94 63.9797C335.66 61.6297 333.71 59.0497 331.17 56.9497C326.42 53.0197 320.72 50.5397 314.55 50.0597C308.74 49.6097 302.91 51.0197 297.68 53.4997C291.44 56.4697 285.8 61.1497 281.04 66.1097C276.92 70.3997 272.76 75.8897 272.63 82.0997C272.58 84.6897 273.36 87.1997 274.74 89.3797C275.77 91.0397 278.37 89.5397 277.33 87.8997Z"></path>
  <path fill="#000" d="M299.78 66.8608C293.85 71.5408 288.4 76.8108 283.55 82.6108C279.41 87.5708 273.8 93.9508 275.56 100.961C276.35 104.111 278.66 106.961 281.94 107.661C283.82 108.061 284.63 105.171 282.74 104.771C279.54 104.091 277.98 100.601 278.26 97.5608C278.63 93.5408 281.45 90.0308 283.86 86.9808C289.14 80.3008 295.22 74.2708 301.91 68.9908C303.42 67.7908 301.28 65.6808 299.78 66.8608Z"></path>
  <path fill="#000" d="M310.6 77.4005C304 82.4205 297.34 87.4705 291.64 93.5305C286.74 98.7405 280.93 106.001 284.98 113.391C286.82 116.741 290.19 118.951 293.96 119.361C295.88 119.571 295.86 116.571 293.96 116.361C290.45 115.981 287.49 113.061 286.74 109.671C285.8 105.421 288.81 101.361 291.39 98.3105C297.37 91.2405 304.78 85.5705 312.12 79.9905C313.63 78.8405 312.13 76.2305 310.6 77.4005Z"></path>
  <path fill="#000" d="M315.1 85.9504C310.3 93.9604 302.59 99.9104 299.1 108.74C297.53 112.72 296.87 117.27 298.13 121.44C299.3 125.33 302.07 128.7 305.69 130.56C310.14 132.84 315.41 132.69 319.82 130.38C321.53 129.48 320.02 126.89 318.31 127.79C311.34 131.43 302.63 127.54 300.82 119.86C298.94 111.91 304.32 104.37 309.11 98.6404C312.13 95.0304 315.27 91.5104 317.69 87.4604C318.69 85.8004 316.1 84.2904 315.1 85.9504Z"></path>
  <path fill="#000" d="M311.36 117.111C311.9 117.191 312.43 117.311 312.96 117.471 313.22 117.551 313.48 117.641 313.73 117.741 313.77 117.761 313.98 117.841 313.77 117.761 313.56 117.671 313.77 117.761 313.81 117.781 313.94 117.841 314.07 117.901 314.2 117.971 314.67 118.211 315.13 118.481 315.56 118.781 315.63 118.831 315.69 118.871 315.76 118.921 315.92 119.031 315.74 118.911 315.69 118.861 315.79 118.941 315.89 119.021 315.99 119.101 316.21 119.291 316.42 119.481 316.63 119.691 317.19 120.241 318.2 120.291 318.75 119.691 319.3 119.091 319.35 118.161 318.75 117.571 316.97 115.821 314.63 114.591 312.16 114.221 311.75 114.161 311.38 114.151 311 114.371 310.69 114.551 310.39 114.911 310.31 115.271 310.15 115.981 310.53 116.991 311.36 117.111zM274.49 98.0391C270.06 97.7991 265.25 99.2491 262.34 102.749 259.64 105.989 258.86 110.689 260.75 114.519 262.78 118.639 267.45 119.679 271.38 121.139 275.11 122.529 278.31 124.969 281.13 127.729 286.89 133.359 291.4 140.229 297.96 145.019 301.81 147.829 306.24 149.429 310.92 150.239 315.86 151.089 321.12 150.839 325.93 152.319 330.24 153.639 334.28 156.259 337.12 159.769 340.2 163.579 341.8 168.509 342.22 173.339 342.77 179.579 341.74 185.869 341.59 192.119 341.27 205.589 341.82 219.119 343.1 232.529 343.85 240.409 344.88 248.289 346.41 256.059 347.76 262.879 349.48 269.699 352.18 276.119 352.77 277.529 353.4 278.919 354.11 280.279 355 281.999 357.58 280.479 356.7 278.769 353.75 273.049 351.92 266.789 350.45 260.549 348.72 253.199 347.56 245.729 346.7 238.239 345.1 224.359 344.42 210.339 344.53 196.369 344.57 191.229 344.91 186.149 345.23 181.019 345.81 171.989 344.33 162.429 337.56 155.829 334.36 152.709 330.29 150.379 325.98 149.219 321.14 147.909 315.97 148.149 311.05 147.239 306.61 146.409 302.52 144.809 298.93 142.039 295.79 139.609 293.12 136.619 290.52 133.639 285.4 127.769 280.29 121.509 272.86 118.519 269.22 117.049 264.14 116.349 262.94 111.929 261.8 107.739 264.4 103.769 268.17 102.079 270.15 101.189 272.33 100.919 274.49 100.539 276.41 100.539 274.49 98.0391z"></path>
</svg>
